<!-- <svg width="118" height="28" viewBox="0 0 118 28" fill="none" xmlns="http://www.w3.org/2000/svg">
<path d="M28.895 21.53C28.2444 25.3406 27.1187 27.8593 25.839 27.8593C24.8222 27.8593 23.9026 26.269 23.2413 23.7039C22.5776 26.3514 21.6431 28 20.6078 28C19.3282 28 18.2025 25.4813 17.5519 21.6707C17.1804 25.1958 16.5577 27.5075 15.8522 27.5075C14.714 27.5075 13.7914 21.4915 13.7914 14.0703C13.7914 6.6492 14.714 0.633163 15.8522 0.633163C16.5577 0.633163 17.1804 2.94488 17.5519 6.47C18.2025 2.6594 19.3282 0.140707 20.6078 0.140707C21.6246 0.140707 22.5443 1.73101 23.2055 4.29612C23.8692 1.64859 24.8037 0 25.839 0C27.1187 0 28.2444 2.51869 28.895 6.32929C29.2665 2.80417 29.8892 0.492457 30.5947 0.492457C31.7328 0.492457 32.6555 6.50849 32.6555 13.9296C32.6555 21.3508 31.7328 27.3668 30.5947 27.3668C29.8892 27.3668 29.2665 25.0551 28.895 21.53Z" fill="#53DA3B"/>
<path d="M34.7163 26.1005C35.8106 26.1005 36.6978 20.6514 36.6978 13.9296C36.6978 7.20787 35.8106 1.75879 34.7163 1.75879C33.6219 1.75879 32.7347 7.20787 32.7347 13.9296C32.7347 20.6514 33.6219 26.1005 34.7163 26.1005Z" fill="#53DA3B"/>
<path d="M40.5816 14C40.5816 19.867 39.7654 24.6231 38.7586 24.6231C37.7517 24.6231 36.9356 19.867 36.9356 14C36.9356 8.13301 37.7517 3.37688 38.7586 3.37688C39.7654 3.37688 40.5816 8.13301 40.5816 14Z" fill="#53DA3B"/>
<path d="M42.1668 22.3015C42.8234 22.3015 43.3557 18.5848 43.3557 14C43.3557 9.41521 42.8234 5.6985 42.1668 5.6985C41.5102 5.6985 40.9779 9.41521 40.9779 14C40.9779 18.5848 41.5102 22.3015 42.1668 22.3015Z" fill="#53DA3B"/>
<path d="M46.4469 13.9296C46.4469 16.5717 45.8436 18.7136 45.0994 18.7136C44.3553 18.7136 43.752 16.5717 43.752 13.9296C43.752 11.2876 44.3553 9.14573 45.0994 9.14573C45.8436 9.14573 46.4469 11.2876 46.4469 13.9296Z" fill="#53DA3B"/>
<path d="M11.7306 1.89949C10.6362 1.89949 9.74909 7.34857 9.74909 14.0703C9.74909 20.7921 10.6362 26.2412 11.7306 26.2412C12.825 26.2412 13.7121 20.7921 13.7121 14.0703C13.7121 7.34857 12.825 1.89949 11.7306 1.89949Z" fill="#53DA3B"/>
<path d="M5.86531 14C5.86531 8.13301 6.68149 3.37688 7.68831 3.37688C8.69512 3.37688 9.5113 8.13301 9.51131 14C9.51131 19.867 8.69512 24.6231 7.68831 24.6231C6.68149 24.6231 5.86531 19.867 5.86531 14Z" fill="#53DA3B"/>
<path d="M4.28008 5.69849C3.62346 5.69849 3.09117 9.4152 3.09117 14C3.09117 18.5848 3.62347 22.3015 4.28008 22.3015C4.9367 22.3015 5.469 18.5848 5.469 14C5.469 9.4152 4.9367 5.69849 4.28008 5.69849Z" fill="#53DA3B"/>
<path d="M0 14.0704C0 11.4283 0.603267 9.28644 1.34743 9.28644C2.0916 9.28644 2.69487 11.4283 2.69487 14.0704C2.69487 16.7124 2.0916 18.8543 1.34743 18.8543C0.603267 18.8543 0 16.7124 0 14.0704Z" fill="#53DA3B"/>
<path d="M61.941 21.7154H56.0664V20.53L57.9791 20.0968V7.0803L56.0664 6.62438V5.43898H61.941V6.62438L60.0284 7.0803V20.0968L61.941 20.53V21.7154Z" fill="#53DA3B"/>
<path d="M66.8107 21.7154H64.807V4.39036H66.8107V21.7154Z" fill="#53DA3B"/>
<path d="M72.6811 21.7154H70.6774V4.39036H72.6811V21.7154Z" fill="#53DA3B"/>
<path d="M86.7486 9.49668V21.7154H85.1092L84.8131 20.0968H84.7221C84.464 20.5224 84.1301 20.8719 83.7202 21.1455C83.3103 21.419 82.8625 21.6166 82.3768 21.7382C81.891 21.8749 81.3825 21.9433 80.8512 21.9433C79.8797 21.9433 79.06 21.7914 78.3921 21.4874C77.7393 21.1683 77.246 20.6819 76.912 20.0285C76.5781 19.375 76.4111 18.5315 76.4111 17.4981V9.49668H78.4376V17.3613C78.4376 18.334 78.6577 19.0634 79.0979 19.5497C79.5381 20.0361 80.2212 20.2792 81.1472 20.2792C82.058 20.2792 82.7715 20.112 83.2876 19.7777C83.8189 19.4282 84.1908 18.9266 84.4033 18.2732C84.631 17.6045 84.7448 16.799 84.7448 15.8568V9.49668H86.7486Z" fill="#53DA3B"/>
<path d="M98.5699 18.3415C98.5699 19.1318 98.3725 19.7929 97.9779 20.3248C97.5832 20.8567 97.0215 21.2594 96.2929 21.533C95.5642 21.8065 94.699 21.9433 93.6971 21.9433C92.847 21.9433 92.1108 21.8749 91.4884 21.7382C90.8812 21.6014 90.3424 21.4114 89.8718 21.1683V19.3446C90.3575 19.5877 90.942 19.8157 91.6251 20.0285C92.3233 20.226 93.0292 20.3248 93.7427 20.3248C94.7597 20.3248 95.4959 20.1652 95.9513 19.8461C96.4067 19.5117 96.6344 19.071 96.6344 18.5239C96.6344 18.22 96.5509 17.9464 96.384 17.7033C96.217 17.4601 95.9134 17.2169 95.4732 16.9738C95.0481 16.7306 94.4333 16.4571 93.6288 16.1531C92.8395 15.8492 92.1639 15.5452 91.6023 15.2413C91.0406 14.9373 90.608 14.5726 90.3044 14.1471C90.0008 13.7215 89.849 13.1744 89.849 12.5058C89.849 11.4723 90.2665 10.6745 91.1014 10.1122C91.9514 9.54987 93.0596 9.26872 94.4258 9.26872C95.1696 9.26872 95.8603 9.34471 96.4978 9.49668C97.1505 9.63346 97.7577 9.83102 98.3194 10.0894L97.6363 11.6851C97.3023 11.5331 96.9456 11.4039 96.5661 11.2976C96.2018 11.176 95.8299 11.0848 95.4504 11.024C95.0709 10.948 94.6838 10.91 94.2891 10.91C93.4694 10.91 92.8395 11.0468 92.3992 11.3204C91.9742 11.5787 91.7617 11.9359 91.7617 12.3918C91.7617 12.7261 91.8604 13.0149 92.0577 13.258C92.255 13.486 92.5814 13.7139 93.0368 13.9419C93.5074 14.1547 94.1297 14.413 94.9039 14.717C95.6781 15.0057 96.3384 15.3021 96.8849 15.606C97.4314 15.91 97.8488 16.2823 98.1372 16.723C98.4257 17.1486 98.5699 17.6881 98.5699 18.3415Z" fill="#53DA3B"/>
<path d="M103.523 9.49668V21.7154H101.519V9.49668H103.523ZM102.544 4.91467C102.847 4.91467 103.113 5.02105 103.341 5.23382C103.583 5.43138 103.705 5.75053 103.705 6.19125C103.705 6.61678 103.583 6.93592 103.341 7.14868C103.113 7.36145 102.847 7.46783 102.544 7.46783C102.21 7.46783 101.929 7.36145 101.701 7.14868C101.473 6.93592 101.36 6.61678 101.36 6.19125C101.36 5.75053 101.473 5.43138 101.701 5.23382C101.929 5.02105 102.21 4.91467 102.544 4.91467Z" fill="#53DA3B"/>
<path d="M118 15.5832C118 16.6014 117.863 17.5057 117.59 18.296C117.332 19.071 116.953 19.7321 116.452 20.2792C115.966 20.8263 115.366 21.2442 114.653 21.533C113.955 21.8065 113.173 21.9433 112.308 21.9433C111.503 21.9433 110.759 21.8065 110.076 21.533C109.393 21.2442 108.801 20.8263 108.3 20.2792C107.799 19.7321 107.404 19.071 107.116 18.296C106.843 17.5057 106.706 16.6014 106.706 15.5832C106.706 14.2307 106.934 13.0909 107.389 12.1638C107.845 11.2216 108.497 10.5073 109.347 10.021C110.198 9.51948 111.207 9.26872 112.376 9.26872C113.484 9.26872 114.456 9.51948 115.29 10.021C116.14 10.5073 116.801 11.2216 117.271 12.1638C117.757 13.0909 118 14.2307 118 15.5832ZM108.778 15.5832C108.778 16.5407 108.9 17.3765 109.143 18.0908C109.401 18.7899 109.795 19.3294 110.327 19.7093C110.858 20.0892 111.533 20.2792 112.353 20.2792C113.173 20.2792 113.848 20.0892 114.38 19.7093C114.911 19.3294 115.298 18.7899 115.541 18.0908C115.799 17.3765 115.928 16.5407 115.928 15.5832C115.928 14.6106 115.799 13.7823 115.541 13.0985C115.283 12.4146 114.888 11.8903 114.357 11.5255C113.841 11.1456 113.165 10.9556 112.33 10.9556C111.086 10.9556 110.182 11.366 109.621 12.1866C109.059 13.0073 108.778 14.1395 108.778 15.5832Z" fill="#53DA3B"/>
</svg> -->
<svg width="47" height="28" viewBox="0 0 47 28" fill="none" xmlns="http://www.w3.org/2000/svg">
<path d="M28.895 21.53C28.2444 25.3406 27.1187 27.8593 25.839 27.8593C24.8222 27.8593 23.9026 26.269 23.2413 23.7039C22.5776 26.3514 21.6431 28 20.6078 28C19.3282 28 18.2025 25.4813 17.5519 21.6707C17.1804 25.1958 16.5577 27.5075 15.8522 27.5075C14.714 27.5075 13.7914 21.4915 13.7914 14.0703C13.7914 6.6492 14.714 0.633163 15.8522 0.633163C16.5577 0.633163 17.1804 2.94488 17.5519 6.47C18.2025 2.6594 19.3282 0.140707 20.6078 0.140707C21.6246 0.140707 22.5443 1.73101 23.2055 4.29612C23.8692 1.64859 24.8037 0 25.839 0C27.1187 0 28.2444 2.51869 28.895 6.32929C29.2665 2.80417 29.8892 0.492457 30.5947 0.492457C31.7328 0.492457 32.6555 6.50849 32.6555 13.9296C32.6555 21.3508 31.7328 27.3668 30.5947 27.3668C29.8892 27.3668 29.2665 25.0551 28.895 21.53Z" fill="#53DA3B"/>
<path d="M34.7163 26.1005C35.8106 26.1005 36.6978 20.6514 36.6978 13.9296C36.6978 7.20787 35.8106 1.75879 34.7163 1.75879C33.6219 1.75879 32.7347 7.20787 32.7347 13.9296C32.7347 20.6514 33.6219 26.1005 34.7163 26.1005Z" fill="#53DA3B"/>
<path d="M40.5816 14C40.5816 19.867 39.7654 24.6231 38.7586 24.6231C37.7517 24.6231 36.9356 19.867 36.9356 14C36.9356 8.13301 37.7517 3.37688 38.7586 3.37688C39.7654 3.37688 40.5816 8.13301 40.5816 14Z" fill="#53DA3B"/>
<path d="M42.1668 22.3015C42.8234 22.3015 43.3557 18.5848 43.3557 14C43.3557 9.41521 42.8234 5.6985 42.1668 5.6985C41.5102 5.6985 40.9779 9.41521 40.9779 14C40.9779 18.5848 41.5102 22.3015 42.1668 22.3015Z" fill="#53DA3B"/>
<path d="M46.4469 13.9296C46.4469 16.5717 45.8436 18.7136 45.0994 18.7136C44.3553 18.7136 43.752 16.5717 43.752 13.9296C43.752 11.2876 44.3553 9.14573 45.0994 9.14573C45.8436 9.14573 46.4469 11.2876 46.4469 13.9296Z" fill="#53DA3B"/>
<path d="M11.7306 1.89949C10.6362 1.89949 9.74909 7.34857 9.74909 14.0703C9.74909 20.7921 10.6362 26.2412 11.7306 26.2412C12.825 26.2412 13.7121 20.7921 13.7121 14.0703C13.7121 7.34857 12.825 1.89949 11.7306 1.89949Z" fill="#53DA3B"/>
<path d="M5.86531 14C5.86531 8.13301 6.68149 3.37688 7.68831 3.37688C8.69512 3.37688 9.5113 8.13301 9.51131 14C9.51131 19.867 8.69512 24.6231 7.68831 24.6231C6.68149 24.6231 5.86531 19.867 5.86531 14Z" fill="#53DA3B"/>
<path d="M4.28008 5.69849C3.62346 5.69849 3.09117 9.4152 3.09117 14C3.09117 18.5848 3.62347 22.3015 4.28008 22.3015C4.9367 22.3015 5.469 18.5848 5.469 14C5.469 9.4152 4.9367 5.69849 4.28008 5.69849Z" fill="#53DA3B"/>
<path d="M0 14.0704C0 11.4283 0.603267 9.28644 1.34743 9.28644C2.0916 9.28644 2.69487 11.4283 2.69487 14.0704C2.69487 16.7124 2.0916 18.8543 1.34743 18.8543C0.603267 18.8543 0 16.7124 0 14.0704Z" fill="#53DA3B"/>
</svg>
